<svg width="16" height="8" viewBox="0 0 16 8" fill="none" xmlns="http://www.w3.org/2000/svg">
<path d="M4.18774 0.584803C4.13812 0.516747 4.18673 0.421146 4.27096 0.421146H15.897C15.9607 0.421146 16.0091 0.478328 15.9986 0.541117L15.5181 3.41427C15.5098 3.4639 15.4668 3.50027 15.4165 3.50027H6.36583C6.33293 3.50027 6.302 3.48454 6.28262 3.45796L4.18774 0.584803Z" fill="white"/>
<path d="M11.8123 7.41528C11.8619 7.48334 11.8133 7.57894 11.729 7.57894H0.10301C0.0393489 7.57894 -0.00906401 7.52176 0.00143613 7.45897L0.481912 4.58581C0.490212 4.53618 0.533164 4.49982 0.583486 4.49982H9.63417C9.66707 4.49982 9.698 4.51554 9.71738 4.54213L11.8123 7.41528Z" fill="white"/>
</svg>
